<?xml version="1.0" encoding="utf-8"?>
<!-- Generator: Adobe Illustrator 24.2.3, SVG Export Plug-In . SVG Version: 6.00 Build 0)  -->
<svg version="1.1" xmlns="http://www.w3.org/2000/svg" xmlns:xlink="http://www.w3.org/1999/xlink" x="0px" y="0px"
	 viewBox="0 0 560 288" style="enable-background:new 0 0 560 288;" xml:space="preserve">
<style type="text/css">
	.st0{display:none;}
	.st1{display:inline;opacity:0.46;}
	.st2{display:inline;}
	.st3{fill:#00466D;}
	.st4{fill:#FFFFFF;}
	.st5{fill:#808080;}
	.st6{fill:none;}
	.st7{font-family:'PTSans-Bold';}
	.st8{font-size:24px;}
	.st9{font-family:'Peyda-Thin';}
	.st10{font-size:7px;}
</style>
<g id="Layer_1">
</g>
<g id="Layer_2" class="st0">
	<g id="LIdsSH_1_" class="st1">
		
			<image style="overflow:visible;" width="564" height="423" id="LIdsSH_2_" xlink:href="B626ACCCEFC64713.jpg"  transform="matrix(0.5 0 0 0.5 -18.1961 73.6844)">
		</image>
	</g>
</g>
<g id="Layer_3" class="st0">
	<g class="st2">
		<g>
			<path d="M193.9,177.6c0,0-0.1,0.1-0.1,0.1c0,0,0,0.1,0,0.1c0,0,0,0.1,0,0.1c0,0,0.1,0,0.1,0c0,0,0.1,0,0.1,0c0,0,0.1-0.1,0.1-0.1
				c0,0,0-0.1,0-0.1c0,0,0-0.1,0-0.1C194,177.6,194,177.5,193.9,177.6C193.9,177.5,193.9,177.6,193.9,177.6L193.9,177.6z"/>
		</g>
	</g>
	<g class="st2">
		<path class="st3" d="M315.5,143.6v72.1c-6.3-4.1-12.1-9.1-16.3-15.3c-7-10.4-8.6-25.3-0.8-35.2c3.3-4.2,8-7.1,11.7-11
			C312.9,151.3,315.2,147.5,315.5,143.6z"/>
	</g>
	<g class="st2">
		<path class="st3" d="M276.3,99.5v23.8c-4.3-1.5-8.5-3.3-12.7-5.2c-3.2-1.5-6.8-4-6.2-7.5c0.4-2,2.1-3.3,3.8-4.4
			c4.5-2.9,9.4-5.2,14.6-6.6h0C276,99.6,276.2,99.5,276.3,99.5z"/>
	</g>
	<g class="st2">
		<g>
			<path d="M328.6,222.8c-0.1-0.1-0.2-0.1-0.3-0.1c0,0-0.1,0-0.1,0c0,0-0.1,0-0.1,0.1c0,0,0,0.1,0,0.1c0,0,0,0.1,0.1,0.1
				c0.1,0.1,0.2,0.1,0.3,0.1c0,0,0.1,0,0.1,0c0,0,0.1,0,0.1-0.1C328.7,223,328.7,222.9,328.6,222.8
				C328.7,222.9,328.7,222.8,328.6,222.8L328.6,222.8z"/>
		</g>
	</g>
	<g class="st2">
		<path class="st3" d="M274.7,140.2c0.1,2.4-2.4,3.9-4.5,4.9c-7.7,3.5-15.8,5.8-24,7.9V114c0.3,1.1,0.8,2.2,1.4,3.2
			c1.4,2,3.4,3.5,5.4,5c6.2,4.5,12.3,9.1,18.5,13.6C273,136.9,274.7,138.3,274.7,140.2z"/>
	</g>
	<g class="st2">
		<g>
			<path d="M315.6,215.8c0-0.1,0-0.1,0-0.2c0,0,0-0.1,0-0.1c0,0-0.1,0-0.1,0c0,0-0.1,0-0.1,0c0,0,0,0.1,0,0.1c0,0.1,0,0.1,0,0.2
				c0,0,0,0.1,0,0.1c0,0,0.1,0,0.1,0C315.5,215.9,315.6,215.9,315.6,215.8C315.6,215.9,315.6,215.9,315.6,215.8L315.6,215.8z"/>
		</g>
	</g>
</g>
<g id="Layer_5">
	<g>
		<path class="st4" d="M331.4,197.4c-14,8.6-30.6,13.6-48.3,13.6c-39.2,0-72.6-24.3-86.1-58.7c9.3-10.5,22.7-16.3,36.1-20.2
			c5.4-1.6,10.8-3,16.2-4.4c8.2-2.2,16.3-4.5,24-7.9c2.2-1,4.6-2.5,4.5-4.9c0-1.9-1.7-3.3-3.2-4.4c-6.1-4.5-12.3-9.1-18.5-13.6
			c-2-1.5-4-3-5.4-5c-0.7-1-1.2-2-1.4-3.2v-3.3c0-0.2,0.1-0.4,0.2-0.6c1.1-2.7,3.9-4.2,6.6-5.2c7.3-2.9,15-4.7,22.8-5.3
			c-5.1,1.5-10.1,3.7-14.6,6.6c-1.7,1.1-3.4,2.5-3.8,4.4c-0.7,3.4,3,6,6.2,7.5c4.2,1.9,8.4,3.6,12.7,5.2c7,2.5,14.1,4.6,21.4,6.1
			c3.4,0.7,7,1.4,10.1,2.9c3.2,1.5,6.1,4,7.2,7.4c0.4,1.3,0.5,2.6,0.5,3.8c-0.3,3.9-2.6,7.7-5.4,10.6c-3.7,3.8-8.4,6.7-11.7,11
			c-7.8,9.8-6.1,24.8,0.8,35.2c4.2,6.3,9.9,11.2,16.3,15.3C322.8,192.9,327.1,195.2,331.4,197.4z"/>
		<path class="st5" d="M375.6,118.6c0,33.3-17.6,62.5-44.1,78.8c-4.3-2.1-8.7-4.5-12.8-7.1c-6.3-4.1-12.1-9.1-16.3-15.3
			c-7-10.4-8.6-25.3-0.8-35.2c3.3-4.2,8-7.1,11.7-11c2.8-2.9,5.1-6.7,5.4-10.6c0.1-1.3,0-2.6-0.5-3.8c-1.1-3.4-4-5.9-7.2-7.4
			c-3.2-1.5-6.7-2.2-10.1-2.9c-7.3-1.5-14.4-3.6-21.4-6.1c-4.3-1.5-8.5-3.3-12.7-5.2c-3.2-1.5-6.9-4-6.2-7.5c0.4-2,2.1-3.3,3.8-4.4
			c4.5-2.9,9.4-5.2,14.6-6.6c-7.8,0.6-15.5,2.4-22.8,5.3c-0.2,0.1-0.4,0.1-0.5,0.2c-0.2,0.1-0.5,0.2-0.7,0.3
			c-0.3,0.1-0.5,0.2-0.8,0.4c-0.4,0.2-0.8,0.4-1.2,0.6c-0.1,0.1-0.3,0.2-0.4,0.3c-0.1,0.1-0.2,0.1-0.3,0.2c-0.2,0.1-0.3,0.2-0.4,0.3
			c0,0,0,0,0,0c-0.1,0.1-0.2,0.2-0.4,0.3c-0.2,0.2-0.5,0.4-0.7,0.7c-0.1,0.1-0.2,0.2-0.3,0.3c-0.3,0.3-0.5,0.7-0.7,1
			c-0.1,0.1-0.1,0.3-0.2,0.4c0,0.1-0.1,0.2-0.1,0.2c0,0.1-0.1,0.3-0.1,0.4c0,0,0,0,0,0.1v3.3c0.3,1.1,0.8,2.2,1.4,3.2
			c1.4,2,3.4,3.5,5.4,5c6.2,4.5,12.3,9.1,18.5,13.6c1.5,1.1,3.2,2.5,3.2,4.4c0.1,2.4-2.4,3.9-4.5,4.9c-7.7,3.5-15.8,5.8-24,7.9
			c-5.4,1.4-10.8,2.8-16.2,4.4c-13.4,4-26.8,9.7-36.1,20.2c-4.3-11-6.6-23.1-6.3-35.8c1.1-49.9,42.4-90.3,92.3-90.3
			c6.1,0,12.1,0.6,17.8,1.7c1.7,0.3,3.3,0.7,5,1.1c8.2,2.1,16.1,5.3,23.3,9.4c2,1.2,4,2.4,5.9,3.7
			C359.5,58.7,375.6,86.8,375.6,118.6z"/>
		<path class="st4" d="M335.1,42.1c-8.9,10.6-22.2,24.8-30.1,25c-6.4,0.1-17.8-11.3-16.5-17.7c1.1-5.6,9-13.4,17.5-20.4
			c8.2,2.1,16.1,5.3,23.3,9.4C331.2,39.6,333.1,40.8,335.1,42.1z"/>
		<path class="st4" d="M288.4,71.8l-8.1,1.9c-0.4,0.1-0.8-0.3-0.6-0.7l2.4-7.9l0,0C283.6,70.4,288.4,71.8,288.4,71.8L288.4,71.8z"/>
	</g>
	<rect x="198.2" y="227.6" class="st6" width="171.7" height="19.6"/>
	<text transform="matrix(1 0 0 1 240.1027 244.4249)" class="st5 st7 st8">TRIPPER</text>
	<rect x="241.3" y="247.3" class="st6" width="87.2" height="26.1"/>
	<text transform="matrix(1 0 0 1 242.8345 252.3679)" class="st9 st10">Collect Moments</text>
</g>
<g id="Layer_6">
</g>
</svg>
